<svg width="1194" height="833" viewBox="0 0 1194 833" fill="none" xmlns="http://www.w3.org/2000/svg">
<path d="M1046.65 520.837C1046.65 520.837 1108.69 552.387 764.18 586.208C764.18 586.208 1086.26 638.05 634.818 694.401C634.818 694.401 639.26 763.478 369.172 791.235C193 791.235 173 815.003 156 832C190.5 832 701.999 832 1194 832V417H394.54L422.029 419.033C588.603 432.151 994.375 469.081 1046.65 520.837Z" fill="#FF0000"/>
<path fill-rule="evenodd" clip-rule="evenodd" d="M421.819 67.7363C77.3076 54.1972 139.348 41.5676 139.348 41.5676C191.625 20.8488 597.396 6.06521 763.97 0.813701L791.459 -1.02958e-05L-8 -1.0252e-05L-8.00001 251L-8.00004 833C322.984 236.608 844.021 191.389 967.545 180.669C979.68 179.615 987.978 178.895 991.883 178.018C994.233 177.49 996.605 176.969 998.947 176.455C1040.22 167.394 1072.41 160.327 816.827 149.812C546.739 138.7 551.181 111.048 551.181 111.048C99.7349 88.4893 421.819 67.7363 421.819 67.7363ZM-8.00001 251L597 251C463.393 131.885 310.726 117.951 246.296 123.599C177.389 76.5873 51.5198 66.9975 -2.80176 68.079L-8.00001 251Z" fill="#FF0000"/>
</svg>
